# xmcd
#
# Track frame offsets:
#	150
#	20887
#	36752
#	59357
#	79629
#	95977
#	122447
#	139255
#	156375
#	174010
#	193880
#	213275
#
# Disc length: 3098 seconds
#
# Revision: 1
# Processed by: cddbd v1.5PL3 Copyright (c) Steve Scherf et al.
# Submitted via: CDex 1.50Beta5
#
DISCID=a70c180c
DTITLE=カスタネッツ - Khaki
DYEAR=1999
DGENRE=Rock
TTITLE0=空
TTITLE1=One-piece
TTITLE2=遠い光
TTITLE3=ねない ねない ねない
TTITLE4=春うらら
TTITLE5=あどけない話
TTITLE6=ステレオ
TTITLE7=P.S.
TTITLE8=これが何か分かるかい?
TTITLE9=中途半端な僕だから
TTITLE10=キャラバン
TTITLE11=マーチ
EXTD=
EXTT0=
EXTT1=
EXTT2=
EXTT3=
EXTT4=
EXTT5=
EXTT6=
EXTT7=
EXTT8=
EXTT9=
EXTT10=
EXTT11=
PLAYORDER=
